<svg width="66" height="66" viewBox="0 0 66 66" fill="none" xmlns="http://www.w3.org/2000/svg">
<path d="M46.3932 32.1964C47.6645 31.1338 47.8336 29.2418 46.771 27.9706C45.7084 26.6993 43.8165 26.5302 42.5452 27.5928L46.3932 32.1964ZM33.56 39.0132L31.6429 41.3208C32.7568 42.2462 34.3729 42.2438 35.484 41.315L33.56 39.0132ZM24.5407 27.6197C23.2663 26.5609 21.3749 26.7357 20.3161 28.0101C19.2573 29.2845 19.4321 31.1759 20.7065 32.2347L24.5407 27.6197ZM42.5452 27.5928L31.636 36.7114L35.484 41.315L46.3932 32.1964L42.5452 27.5928ZM35.4771 36.7057L24.5407 27.6197L20.7065 32.2347L31.6429 41.3208L35.4771 36.7057ZM54.7185 32.9702C54.7364 44.9633 45.0286 54.7001 33.0356 54.718L33.0446 60.718C48.3513 60.6951 60.7414 48.268 60.7185 32.9613L54.7185 32.9702ZM33.0356 54.718C21.0426 54.7359 11.3058 45.0281 11.2879 33.0351L5.28787 33.044C5.31071 48.3508 17.7378 60.7408 33.0446 60.718L33.0356 54.718ZM11.2879 33.0351C11.27 21.042 20.9777 11.3052 32.9708 11.2873L32.9618 5.28734C17.6551 5.31018 5.26502 17.7373 5.28787 33.044L11.2879 33.0351ZM32.9708 11.2873C44.9638 11.2694 54.7006 20.9772 54.7185 32.9702L60.7185 32.9613C60.6957 17.6545 48.2686 5.26449 32.9618 5.28734L32.9708 11.2873Z" fill="#0D0D0D"/>
</svg>
