<svg width="68" height="68" viewBox="0 0 68 68" fill="none" xmlns="http://www.w3.org/2000/svg">
<path d="M33.1802 20.6133C32.116 19.3433 30.2239 19.1765 28.954 20.2407C27.684 21.3049 27.5172 23.197 28.5814 24.467L33.1802 20.6133ZM40.013 33.438L42.3229 35.3522C43.247 34.2372 43.2426 32.6211 42.3124 31.5112L40.013 33.438ZM28.6307 42.4714C27.5734 43.7472 27.7506 45.6384 29.0263 46.6956C30.302 47.7528 32.1933 47.5756 33.2505 46.2999L28.6307 42.4714ZM28.5814 24.467L37.7136 35.3648L42.3124 31.5112L33.1802 20.6133L28.5814 24.467ZM37.7031 31.5238L28.6307 42.4714L33.2505 46.2999L42.3229 35.3522L37.7031 31.5238ZM33.9437 12.287C45.9368 12.2542 55.6856 21.9499 55.7184 33.9429L61.7184 33.9265C61.6765 18.6198 49.234 6.24518 33.9273 6.28704L33.9437 12.287ZM55.7184 33.9429C55.7512 45.9359 46.0555 55.6848 34.0625 55.7176L34.0789 61.7175C49.3856 61.6757 61.7602 49.2332 61.7184 33.9265L55.7184 33.9429ZM34.0625 55.7176C22.0695 55.7504 12.3207 46.0547 12.2879 34.0617L6.28788 34.0781C6.32975 49.3848 18.7722 61.7594 34.0789 61.7175L34.0625 55.7176ZM12.2879 34.0617C12.2551 22.0687 21.9507 12.3198 33.9437 12.287L33.9273 6.28704C18.6206 6.32891 6.24601 18.7714 6.28788 34.0781L12.2879 34.0617Z" fill="#1A1A1A"/>
</svg>
